<svg width="45" height="45" viewBox="0 0 45 45" fill="none" xmlns="http://www.w3.org/2000/svg">
<path d="M24.1075 0C23.6812 0 23.2725 0.169333 22.9711 0.470747C22.6697 0.772162 22.5003 1.18097 22.5003 1.60723V20.894C22.5003 21.3203 22.6697 21.7291 22.9711 22.0305C23.2725 22.3319 23.6812 22.5013 24.1075 22.5013H43.3929C43.8191 22.5013 44.2279 22.3319 44.5293 22.0305C44.8307 21.7291 45 21.3203 45 20.894C45 18.1502 44.4596 15.4332 43.4096 12.8982C42.3597 10.3632 40.8208 8.05991 38.8807 6.11972C36.9407 4.17953 34.6375 2.64049 32.1027 1.59046C29.5679 0.54044 26.8511 0 24.1075 0ZM25.7146 19.2868V3.28518C29.8316 3.66051 33.6869 5.46694 36.6102 8.39041C39.5334 11.3139 41.3398 15.1695 41.715 19.2868H25.7146ZM19.2861 8.10688C19.2861 7.88362 19.2396 7.66279 19.1496 7.45849C19.0595 7.2542 18.9279 7.0709 18.7631 6.92029C18.5983 6.76969 18.4039 6.65507 18.1923 6.58376C17.9808 6.51244 17.7567 6.48598 17.5344 6.50608C13.8844 6.83888 10.4049 8.20493 7.50329 10.4442C4.60172 12.6835 2.39826 15.7033 1.15103 19.1499C-0.0962044 22.5965 -0.335571 26.3271 0.460968 29.9048C1.25751 33.4826 3.05697 36.7592 5.64857 39.351C8.24017 41.9428 11.5166 43.7424 15.0941 44.539C18.6716 45.3356 22.4019 45.0962 25.8483 43.8489C29.2946 42.6016 32.3142 40.398 34.5533 37.4962C36.7924 34.5944 38.1584 31.1146 38.4912 27.4644C38.5108 27.2426 38.4841 27.0191 38.4127 26.8081C38.3414 26.5971 38.227 26.4033 38.0768 26.2389C37.9266 26.0745 37.7439 25.9431 37.5402 25.853C37.3365 25.7629 37.1164 25.7162 36.8937 25.7157H19.2861V8.10688ZM3.21494 25.7157C3.21418 22.0106 4.4935 18.4189 6.83639 15.5487C9.17929 12.6784 12.4418 10.7059 16.0719 9.96484V27.323C16.0719 27.7492 16.2412 28.158 16.5426 28.4594C16.844 28.7609 17.2528 28.9302 17.679 28.9302H35.0359C34.2293 32.824 32.0086 36.2809 28.8026 38.633C25.5966 40.9852 21.6328 42.0658 17.6767 41.6662C13.7206 41.2665 10.0529 39.415 7.38203 36.4692C4.71114 33.5233 3.22653 29.6922 3.21494 25.7157Z" fill="#A7D28B"/>
</svg>
