<svg width="40" height="40" viewBox="0 0 40 40" fill="none" xmlns="http://www.w3.org/2000/svg">
<path d="M40 20C40 31.0457 31.0457 40 20 40C8.9543 40 0 31.0457 0 20C0 8.9543 8.9543 0 20 0C31.0457 0 40 8.9543 40 20Z" fill="#A7D28B" fill-opacity="0.1"/>
<path d="M32.7193 18.9569C30.9243 16.1494 27.2132 20.2811 20.4405 21.1209C17.9328 21.4314 15.6734 23.6798 12.7605 23.4656C11.5661 23.3775 9.89826 19.6877 8.64966 20.2759C8.00729 20.579 7.71252 21.5904 8.37297 22.3504L15.7061 31.7455C15.7061 31.7455 16.0787 32.2068 17.3343 31.8873C17.6436 31.9851 22.2946 29.9838 24.9837 25.9775C25.6274 25.0182 26.395 24.2195 27.1896 23.5522C29.7695 21.5039 32.574 20.7902 32.574 20.7902C32.9327 20.4722 33.0169 20.1341 32.9974 19.8407C33.021 19.351 32.7193 18.9569 32.7193 18.9569Z" fill="#5C913B"/>
<path d="M15.9466 14.4736C13.3166 18.3926 8.71084 20.249 8.71084 20.249C7.85156 21.0306 8.57736 21.9517 8.57736 21.9517L15.834 31.1774C15.834 31.1774 16.1969 31.638 17.4191 31.3185C17.4191 31.3185 22.0249 29.4657 24.6541 25.5468C27.3648 21.5083 32.2528 20.2334 32.2528 20.2334C33.1114 19.4518 32.3863 18.5292 32.3863 18.5292L25.1297 9.30498C25.1297 9.30498 24.7668 8.84366 23.5446 9.16166C23.5446 9.16166 18.6572 10.4337 15.9466 14.4736Z" fill="#A7D28B"/>
<path d="M23.263 21.3605C25.3748 21.3605 27.0867 19.5224 27.0867 17.2549C27.0867 14.9875 25.3748 13.1493 23.263 13.1493C21.1513 13.1493 19.4394 14.9875 19.4394 17.2549C19.4394 19.5224 21.1513 21.3605 23.263 21.3605Z" fill="#77B255"/>
<path d="M16.9178 30.6385C16.3053 30.6385 16.0808 30.3936 16.0502 30.3563L9.50894 22.1578C9.49643 22.1421 9.16481 21.7345 9.20514 21.2165C9.22947 20.9022 9.38103 20.6223 9.65494 20.3841L9.69874 20.3558C9.74115 20.3379 13.9833 18.4657 16.361 15.0819C18.8762 11.5019 23.2151 9.96561 23.2582 9.95068C24.4713 9.64761 24.8683 10.0806 24.9107 10.1313L31.3657 18.3754C31.3775 18.3888 31.7085 18.7979 31.6681 19.3167C31.6438 19.6302 31.4923 19.9101 31.2183 20.1483L31.1495 20.1848C31.1071 20.196 26.8886 21.3217 24.4449 24.7988C22.0123 28.2624 17.766 30.5033 17.7236 30.525C17.401 30.6071 17.1354 30.6385 16.9178 30.6385ZM16.3123 30.1107C16.3123 30.1107 16.6265 30.4212 17.6089 30.1764C17.6144 30.1682 21.7864 27.9653 24.1689 24.5748C26.5583 21.1747 30.5822 19.9601 31.0285 19.834C31.2072 19.669 31.3059 19.4861 31.3219 19.2898C31.3511 18.9315 31.105 18.6232 31.1029 18.6202L24.6479 10.3754C24.6479 10.3754 24.335 10.0656 23.352 10.3105C23.3235 10.3209 19.0869 11.8228 16.639 15.3066C14.299 18.6366 10.216 20.5282 9.85516 20.6909C9.66884 20.8589 9.56734 21.0463 9.55135 21.2471C9.52354 21.6024 9.76826 21.9092 9.77034 21.9122L16.3123 30.1107Z" fill="#5C913B"/>
<path d="M22.7597 23.3506L22.7555 27.7847L23.101 28.2251C23.7747 27.5652 24.4219 26.8232 24.9816 25.9887C25.544 25.1571 26.2049 24.4078 26.9476 23.7597L26.6119 23.3305L22.7597 23.3506Z" fill="#FFAC33"/>
<path d="M26.5987 23.3148L17.9043 12.2573C17.198 12.8813 16.5195 13.6091 15.9424 14.4698C15.3786 15.3104 14.7223 16.0501 14.041 16.7025L15.0574 17.9947L15.0567 17.9954L22.7555 27.7847C23.4608 27.1134 24.0967 26.3617 24.6507 25.543C25.2277 24.6831 25.9055 23.956 26.6112 23.332L26.5987 23.3148Z" fill="#FFE8B6"/>
<path d="M18.0343 23.641C16.9519 22.2645 14.6605 24.498 14.007 23.6671C13.6906 23.2648 13.8943 22.743 14.3101 22.3668C15.0088 21.7323 15.5128 22.1018 15.8291 21.8144C16.0537 21.6113 16.0419 21.3628 15.9084 21.1918C15.5983 20.7984 14.8058 21.0037 14.1898 21.3859L13.8902 21.0052C13.7992 20.8964 13.6723 20.8299 13.5364 20.8198C13.4005 20.8097 13.2663 20.8568 13.1622 20.9511C13.058 21.0454 12.9922 21.1796 12.9786 21.3251C12.965 21.4706 13.0047 21.6161 13.0893 21.7308L13.3994 22.1257C12.9287 22.796 12.7688 23.6858 13.3257 24.3927C14.3657 25.714 16.6856 23.5178 17.4156 24.4465C17.6687 24.7689 17.5977 25.384 17.0652 25.8662C16.2671 26.5911 15.5441 26.2514 15.2194 26.5455C15.0609 26.6881 15.0324 26.9598 15.2013 27.1756C15.4704 27.5167 16.3276 27.4435 17.1514 26.8926C17.1528 26.8941 17.1528 26.8971 17.1528 26.8971L17.4914 27.3271C17.5351 27.3861 17.5894 27.4351 17.6511 27.4712C17.7127 27.5073 17.7805 27.5298 17.8504 27.5372C17.9203 27.5446 17.9909 27.5369 18.058 27.5146C18.1251 27.4922 18.1873 27.4556 18.2409 27.4069C18.2946 27.3582 18.3386 27.2985 18.3704 27.2312C18.4021 27.1639 18.421 27.0905 18.4259 27.0153C18.4307 26.94 18.4214 26.8645 18.3986 26.7932C18.3758 26.7219 18.3399 26.6562 18.293 26.6L17.9544 26.1701C17.9509 26.1656 17.9453 26.1626 17.9412 26.1581C18.4967 25.4281 18.6844 24.4659 18.0343 23.641Z" fill="#5C913B"/>
<path d="M30.5322 31.1304C30.5384 31.1244 30.5454 31.1199 30.5516 31.1147C30.5989 31.0639 30.6358 31.0057 30.6775 30.9497C30.7067 30.9109 30.7393 30.8736 30.7665 30.834C30.7908 30.7967 30.8109 30.7586 30.8332 30.7206C31.8204 29.088 31.1738 26.3201 29.2196 24.221C27.2647 22.1219 24.6861 21.4277 23.1664 22.4885C23.1302 22.5116 23.0948 22.5332 23.06 22.5601C23.0232 22.5892 22.9877 22.6243 22.953 22.6549C22.9015 22.7005 22.8473 22.7393 22.7993 22.7908C22.7931 22.7975 22.7889 22.805 22.784 22.8117C22.7764 22.8199 22.7673 22.8251 22.759 22.8341L22.7632 22.8378C22.068 23.6306 22.0596 24.857 22.759 25.6087C23.4598 26.3612 24.6013 26.3507 25.3403 25.6042L25.348 25.6132C25.3334 25.6281 25.3174 25.6378 25.3035 25.6528C24.5672 26.4433 24.5499 27.7041 25.2625 28.4707C25.9757 29.2358 27.1513 29.2172 27.8869 28.4267C27.9008 28.4117 27.9098 28.3946 27.9237 28.3789L27.9314 28.3878C27.2362 29.1806 27.2271 30.407 27.9279 31.1595C28.628 31.9104 29.7695 31.9015 30.5078 31.155L30.512 31.1595C30.519 31.149 30.5245 31.1393 30.5322 31.1304Z" fill="#E1E8ED"/>
<path d="M22.7604 25.6386C23.3902 26.3141 24.374 26.3694 25.1033 25.8334C25.4085 25.2735 25.496 24.7413 25.496 24.5748C23.9617 25.8035 22.5921 24.5816 22.2856 23.8508C22.1583 24.4823 22.3127 25.1571 22.7604 25.6386ZM27.8347 28.505C28.0419 28.1923 28.2025 27.8899 28.2776 27.6854C27.3008 28.6469 25.4335 27.9429 24.8676 26.4179C24.6187 27.127 24.7459 27.9437 25.2645 28.5006C25.9611 29.2485 27.0957 29.2425 27.8347 28.505ZM30.5141 31.1886L30.5343 31.1617C30.5412 31.1558 30.5482 31.1513 30.5537 31.1453C30.6017 31.0945 30.6385 31.0363 30.6795 30.9811C30.7094 30.9415 30.7414 30.9049 30.7685 30.8646C30.7936 30.8281 30.8137 30.7892 30.836 30.7512C30.8812 30.6765 30.9055 30.5884 30.9437 30.5093C29.1862 31.3536 27.8744 29.9211 27.5066 29.2067C27.3015 29.8912 27.435 30.6579 27.93 31.1901C28.6294 31.9418 29.7709 31.9328 30.5099 31.1856L30.5141 31.1886Z" fill="#CCD6DD"/>
<path d="M17.6707 16.1337L17.6902 16.1173C17.7382 16.0665 17.775 16.0083 17.816 15.9531C17.8452 15.9143 17.8772 15.8777 17.9043 15.8374C17.9294 15.8 17.9495 15.762 17.9718 15.7239C18.959 14.0914 18.3117 11.3227 16.3575 9.22436C14.4025 7.12528 11.8247 6.43031 10.3043 7.4903C10.2688 7.51419 10.2327 7.53584 10.1979 7.56271C10.1604 7.59183 10.1263 7.62616 10.0901 7.65751C10.0387 7.7023 9.98447 7.74112 9.93719 7.79263C9.93094 7.79934 9.92677 7.80756 9.9219 7.81353C9.91425 7.82099 9.90452 7.82771 9.89687 7.83592L9.90035 7.83965C9.20514 8.63241 9.19679 9.85887 9.89687 10.6106C10.597 11.3623 11.7392 11.3533 12.4775 10.6068L12.4851 10.615C12.4705 10.6292 12.4546 10.6397 12.4407 10.6546C11.7044 11.4451 11.687 12.7059 12.4003 13.4725C13.1136 14.2392 14.2885 14.2198 15.0248 13.4292C15.0387 13.4143 15.0477 13.3972 15.0616 13.3815L15.0693 13.3897C14.374 14.1824 14.365 15.4089 15.0658 16.1606C15.7659 16.9123 16.9074 16.9033 17.6457 16.1561L17.6492 16.1606C17.6568 16.1524 17.6631 16.1427 17.6707 16.1337Z" fill="#E1E8ED"/>
<path d="M9.89618 10.6113C10.526 11.2876 11.5098 11.3429 12.239 10.8054C12.5442 10.2455 12.6311 9.71405 12.6311 9.54759C11.0975 10.7755 9.72724 9.55281 9.42135 8.82201C9.29412 9.45428 9.44846 10.1298 9.89618 10.6113ZM14.9719 13.4763C15.1784 13.1635 15.339 12.8627 15.4134 12.6581C14.4359 13.6196 12.5686 12.9149 12.0034 11.3899C11.7545 12.099 11.8824 12.9157 12.4003 13.4725C13.0983 14.2213 14.2329 14.2145 14.9719 13.4763ZM17.6492 16.1606C17.6568 16.1524 17.6631 16.1434 17.67 16.1345L17.6895 16.118C17.7375 16.0673 17.7743 16.0091 17.8153 15.9538C17.8445 15.915 17.8765 15.8784 17.9036 15.8381C17.9287 15.8008 17.9488 15.7627 17.9711 15.7247C18.0163 15.65 18.0406 15.5612 18.0788 15.4821C16.3213 16.3263 15.0095 14.8946 14.6417 14.1802C14.4366 14.8647 14.5701 15.6313 15.0651 16.1628C15.7652 16.9145 16.9067 16.9056 17.645 16.1584L17.6492 16.1606Z" fill="#CCD6DD"/>
</svg>
