<svg width="45" height="45" viewBox="0 0 45 45" fill="none" xmlns="http://www.w3.org/2000/svg">
<path fill-rule="evenodd" clip-rule="evenodd" d="M32.8276 8.1523C29.9616 6.08936 26.5436 4.93201 23.014 4.82938C19.4844 4.72676 16.005 5.68356 13.024 7.5765C10.0431 9.46943 7.69722 12.2118 6.28876 15.4501C4.88031 18.6884 4.47379 22.2744 5.12159 25.7459C5.22831 26.3696 5.08564 27.0102 4.72435 27.5297C4.36306 28.0491 3.8121 28.4057 3.19029 28.5226C2.56848 28.6395 1.92566 28.5072 1.40046 28.1544C0.875262 27.8015 0.509775 27.2564 0.382826 26.6365C-0.454959 22.1525 0.0896665 17.5197 1.94451 13.3522C3.79935 9.18475 6.87681 5.67947 10.769 3.301C14.6611 0.922537 19.1841 -0.216786 23.7384 0.034059C28.2928 0.284904 32.6633 1.91407 36.2707 4.7056L38.2383 2.7379C38.4629 2.51268 38.7493 2.35918 39.0612 2.29681C39.3731 2.23444 39.6964 2.26601 39.9904 2.38752C40.2843 2.50904 40.5356 2.71503 40.7125 2.97943C40.8893 3.24384 40.9837 3.55477 40.9838 3.87286V11.2453C40.9838 11.6717 40.8144 12.0806 40.513 12.3821C40.2115 12.6836 39.8027 12.8529 39.3763 12.8529H32.0046C31.6872 12.8522 31.3771 12.7576 31.1134 12.5809C30.8497 12.4042 30.6442 12.1534 30.5228 11.8601C30.4015 11.5667 30.3696 11.2441 30.4314 10.9327C30.4931 10.6213 30.6456 10.3352 30.8697 10.1104L32.8276 8.1523ZM41.8004 16.4379C42.4288 16.3194 43.0785 16.4553 43.6067 16.8159C44.1348 17.1765 44.4981 17.7321 44.6166 18.3606C45.4551 22.8452 44.9108 27.4787 43.0559 31.6469C41.201 35.815 38.1231 39.3208 34.2303 41.6995C30.3375 44.0781 25.8137 45.2172 21.2588 44.9658C16.7038 44.7143 12.3329 43.0842 8.72549 40.2915L6.75797 42.2624C6.53316 42.4878 6.24648 42.6414 5.93428 42.7037C5.62209 42.7659 5.29844 42.7341 5.00436 42.6122C4.71028 42.4903 4.45902 42.2838 4.28243 42.0189C4.10584 41.754 4.01188 41.4426 4.01245 41.1242V33.7518C4.01245 33.3254 4.1818 32.9165 4.48326 32.615C4.78471 32.3135 5.19358 32.1442 5.6199 32.1442H12.9917C13.31 32.1436 13.6213 32.2376 13.8862 32.4142C14.1511 32.5908 14.3576 32.8421 14.4795 33.1362C14.6014 33.4303 14.6332 33.754 14.5709 34.0662C14.5087 34.3784 14.3551 34.6651 14.1297 34.8899L12.1686 36.848C15.0346 38.9109 18.4526 40.0683 21.9822 40.1709C25.5118 40.2735 28.9913 39.3167 31.9722 37.4238C34.9532 35.5309 37.299 32.7885 38.7075 29.5502C40.1159 26.3119 40.5224 22.7259 39.8746 19.2544C39.816 18.9428 39.8195 18.6226 39.8847 18.3123C39.95 18.002 40.0758 17.7076 40.255 17.446C40.4342 17.1844 40.6632 16.9607 40.9289 16.7877C41.1946 16.6147 41.4919 16.4958 41.8036 16.4379H41.8004ZM24.5139 11.7501C24.5139 11.1106 24.2598 10.4972 23.8076 10.045C23.3555 9.59277 22.7422 9.33871 22.1027 9.33871C21.4632 9.33871 20.8499 9.59277 20.3977 10.045C19.9455 10.4972 19.6915 11.1106 19.6915 11.7501V12.8529C18.4346 13.0609 17.2895 13.7005 16.4532 14.6616C15.6169 15.6227 15.1417 16.8453 15.1093 18.119C15.077 19.3927 15.4895 20.6379 16.2759 21.6402C17.0624 22.6426 18.1735 23.3395 19.4182 23.611L23.469 24.4952C23.7092 24.5561 23.9194 24.7017 24.0608 24.9052C24.2023 25.1087 24.2655 25.3565 24.2389 25.6029C24.2123 25.8493 24.0977 26.0778 23.9161 26.2465C23.7345 26.4151 23.4981 26.5125 23.2504 26.5208H20.955C20.7437 26.52 20.5378 26.4541 20.3652 26.3321C20.1926 26.2102 20.0618 26.0381 19.9905 25.8391C19.885 25.5404 19.7216 25.2654 19.5098 25.0298C19.298 24.7942 19.0418 24.6027 18.756 24.4661C18.4701 24.3295 18.1602 24.2505 17.8438 24.2337C17.5275 24.2169 17.2109 24.2626 16.9122 24.3682C16.6135 24.4737 16.3386 24.6371 16.103 24.8489C15.8674 25.0608 15.6759 25.3169 15.5393 25.6028C15.4027 25.8887 15.3238 26.1987 15.307 26.5151C15.2902 26.8314 15.3359 27.148 15.4414 27.4467C15.7727 28.3822 16.3363 29.2181 17.0791 29.8761C17.8219 30.5341 18.7198 30.9926 19.6883 31.2085V32.3724C19.6883 33.012 19.9423 33.6253 20.3945 34.0776C20.8467 34.5298 21.46 34.7838 22.0995 34.7838C22.739 34.7838 23.3522 34.5298 23.8044 34.0776C24.2566 33.6253 24.5106 33.012 24.5106 32.3724V31.2085C25.8093 30.9174 26.9699 30.1923 27.801 29.1527C28.6321 28.1131 29.084 26.8213 29.0821 25.4903C29.0803 24.1593 28.6247 22.8687 27.7907 21.8315C26.9567 20.7942 25.794 20.0723 24.4946 19.7849L20.4438 18.8975C20.2866 18.8621 20.148 18.77 20.0544 18.6388C19.9607 18.5077 19.9186 18.3467 19.9361 18.1865C19.9536 18.0263 20.0294 17.8782 20.1492 17.7703C20.2689 17.6625 20.4241 17.6025 20.5853 17.6018H23.2472C23.4589 17.6007 23.6657 17.6658 23.8386 17.788C24.0116 17.9103 24.142 18.0834 24.2117 18.2834C24.4248 18.8867 24.8689 19.3806 25.4462 19.6565C25.732 19.7931 26.042 19.872 26.3583 19.8888C26.6747 19.9056 26.9912 19.8599 27.2899 19.7544C27.5886 19.6488 27.8636 19.4855 28.0992 19.2736C28.3347 19.0618 28.5263 18.8056 28.6629 18.5197C28.7994 18.2339 28.8784 17.9239 28.8952 17.6075C28.912 17.2911 28.8663 16.9745 28.7607 16.6758C28.4302 15.7393 27.8665 14.9025 27.1229 14.2444C26.3793 13.5862 25.4803 13.1283 24.5106 12.914V11.7565L24.5139 11.7501Z" fill="#A7D28B"/>
</svg>
